<svg xmlns="http://www.w3.org/2000/svg" viewBox="0 0 700 200"><path d="M28.722 189.006c0-.76 1.012-1.671 2.25-2.023 5.809-1.653 21.39-4.585 32.25-6.068 16.013-2.187 16.208-2.25 17.382-5.617l1.014-2.908-5.698.035c-6.219.038-11.599 1.1-29.448 5.808-19.729 5.205-34.19 6.197-30.055 2.061.9-.9 20.3-5.088 38.768-8.37l3.963-.705-2.504-1.52c-1.378-.836-4.166-4.735-6.197-8.664-4.89-9.464-11.41-17.587-18.27-22.767-4.561-3.444-6.584-4.308-10.93-4.668-5.014-.416-5.358-.618-5.765-3.39-.38-2.59.036-3.186 3.439-4.922 4.047-2.065 4.053-2.168.433-7.14l-1.996-2.742 2.432-2.67c1.337-1.468 1.96-2.401 1.384-2.074-.576.328-1.701.182-2.5-.323-1.168-.739-1.06-.928.548-.966 1.973-.046 1.974-.067.059-1.515-1.82-1.377-1.71-1.468 1.75-1.468 3.421 0 3.69-.216 3.69-2.953 0-2.549.502-3.092 3.657-3.963 4.892-1.35 5.69-.622 4.98 4.547-.683 4.989.044 5.402 3.336 1.898 1.714-1.824 2.042-2.807 1.256-3.755-.796-.958-.191-2.239 2.383-5.048 2.908-3.172 3.76-3.598 5.42-2.71 1.726.924 1.969.73 1.969-1.575 0-1.783-.64-2.796-1.99-3.149-1.093-.286-1.753-.899-1.467-1.362.286-.464 1.181-.59 1.989-.28.807.31 1.468.103 1.468-.46 0-.563-.544-1.205-1.208-1.426-2.318-.773 3.653-5.8 7.662-6.45 3.727-.606 3.821-.548 3.197 1.938-.353 1.409-.918 3.279-1.254 4.155-.705 1.836.4 2 4.073.604 1.962-.746 2.727-.66 3.114.348.37.962 1.904 1.204 5.465.862 3.288-.316 4.95-.097 4.95.651 0 .62.409 1.128.907 1.128.51 0 .437-1.531-.168-3.5-.59-1.925-1.643-3.5-2.339-3.5-.695 0-1.532-.844-1.86-1.875-.33-1.04-2.62-2.649-5.14-3.611-2.501-.955-4.773-2.325-5.05-3.045-.366-.954-1.959-1.159-5.873-.755-5.201.537-5.392.468-6.056-2.175-.89-3.548 2.738-7.366 7.779-8.184 3.382-.55 3.632-.401 4.275 2.53.793 3.606 1.071 3.589 13.526-.847 8.234-2.932 17.635-3.153 18.677-.437.295.77 1.055 1.399 1.69 1.399.633 0 1.714.9 2.4 2 .688 1.1 2.32 2 3.628 2 1.881 0 2.47.63 2.821 3.02.244 1.661-.137 3.85-.846 4.862-1.2 1.711-.869 1.885 4.695 2.467 8.633.902 10.94 1.644 10.901 3.509-.04 2.032-2.873 5.512-5.216 6.409-1.523.583-2.544 2.733-1.297 2.733 2.073 0 5.624-2.785 6.404-5.022.527-1.51 2.167-3.585 3.645-4.612 1.479-1.026 3.545-2.654 4.593-3.616 2.067-1.9 4.905-2.346 4.905-.772 0 .602.937.552 2.436-.131 5.918-2.697 7.74 3.316 2.492 8.22-1.69 1.578-3.491 4.388-4.004 6.244-.759 2.748-1.652 3.59-4.813 4.537-2.53.758-4.073 1.896-4.432 3.269-.535 2.048-.341 2.087 7.135 1.411 11.179-1.009 34.162-4.996 49.421-8.572 7.296-1.71 15.993-3.709 19.329-4.442 3.335-.733 7.777-2.048 9.872-2.923 2.76-1.154 7.284-1.61 16.436-1.662 6.945-.038 13.42-.383 14.387-.766 2.221-.879 8.74-9.96 8.74-12.177 0-.913-1.824-4.21-4.054-7.324l-4.055-5.662h-5.445c-2.995 0-5.445-.431-5.445-.958 0-.526 1.536-2.183 3.414-3.681l3.414-2.724-3.774-5.569c-4.756-7.02-7.615-12.662-8.506-16.79-.572-2.652-.247-3.67 1.833-5.75 2.313-2.314 7.628-3.555 7.612-1.778-.004.412-.9 2.1-1.993 3.75s-1.99 4.035-1.994 5.3l-.007 2.301 3.25-2.452c2.966-2.238 9.404-4.63 12.5-4.644 2.558-.011 1.127 2.02-2.5 3.549l-3.75 1.581 2.25 1.843c3.161 2.588 2.855 3.022-2.133 3.022-3.86 0-4.44.293-4.853 2.454-.335 1.752.3 3.19 2.219 5.029l2.687 2.575 1.848-4.098c1.027-2.277 3.078-4.734 4.616-5.53 3.277-1.694 11.455-1.904 12.435-.319 1.068 1.728-1.612 2.856-6.819 2.873-2.612.008-4.75.466-4.75 1.016s.852 1 1.893 1 2.152.675 2.469 1.5c.426 1.11-.143 1.5-2.193 1.5-2.609 0-5.169 1.537-5.169 3.104 0 .388 1.765.469 3.922.18 2.504-.337 6.447.24 10.905 1.594 3.841 1.167 7.701 2.122 8.578 2.122 2.514 0 1.884 2.467-1.89 7.411l-3.484 4.566 5.235 3.002c6.591 3.78 9.734 3.967 9.734.578 0-2.158-.494-2.478-4.241-2.75-5.845-.424-6.233-2.962-.831-5.45 2.823-1.3 3.854-2.307 3.438-3.357-5.126-12.928-5.285-16.625-1.211-28.148 2.363-6.684 4.748-10.195 8.17-12.026 3.02-1.616 3.082-.197.209 4.707-1.49 2.543-2.49 4.844-2.22 5.113.269.27 2.865-.216 5.77-1.078 6.375-1.894 9.227-2.001 8.67-.328-.228.683-3.45 2.152-7.16 3.266-7.73 2.32-11.593 5.258-11.593 8.818 0 2.453.03 2.444 3.4-.924 4.112-4.113 8.28-4.454 15.655-1.281 2.71 1.165 5.83 1.882 6.935 1.593 2.1-.55 2.417.062 1.403 2.706-.844 2.197-5.644 2.004-10.393-.418-4.446-2.269-6.28-2.457-9.12-.937-1.884 1.009-1.782 1.27 1.948 5 2.165 2.165 4.664 3.937 5.554 3.937.89 0 1.618.45 1.618 1 0 1.644-7.61 1.131-10.855-.732-3.977-2.282-4.877-1.116-3.101 4.02l1.456 4.212 6.686.574c4.934.425 7.757 1.284 10.773 3.28 2.248 1.488 5.427 2.973 7.064 3.3 3.612.723 4.002 3.772.975 7.62l-2.002 2.545 3.048 2.564c6.491 5.462 16.68 5.848 26.128.99 4.738-2.437 6.495-2.756 15.878-2.88 8.18-.107 11.439-.572 14.5-2.066 5.138-2.508 5.434-5.167 1.498-13.486-1.676-3.543-3.047-7.229-3.048-8.191 0-1.353-.852-1.754-3.75-1.766-6.175-.025-6.896-1.18-3.298-5.278l3.131-3.565-4.542-6.634c-5.15-7.522-5.811-11.505-2.319-13.95 1.223-.857 3.011-1.557 3.975-1.557 1.469 0 1.595.416.778 2.565-1.479 3.889-1.227 8.435.467 8.435.793 0 3.606-2.517 6.25-5.592 5.691-6.619 8.752-8.408 14.38-8.408 3.59 0 4 .208 2.931 1.495-.682.822-3.018 2.028-5.19 2.679-4.055 1.214-7.813 4.894-7.813 7.647 0 1.158.699.9 2.75-1.012 4.074-3.8 7.006-5.022 10.308-4.297 4.086.898 3.677 1.876-1.347 3.22-4.389 1.174-9.711 4.661-9.711 6.363 0 .523 1.123.215 2.495-.685 1.743-1.142 3.542-1.438 5.965-.984 5.432 1.02 5.027 2.282-.972 3.032-4.516.564-5.488 1.027-5.488 2.614 0 1.585.716 1.928 4.03 1.928 2.216 0 6.703 1.125 9.97 2.5 3.267 1.375 6.628 2.5 7.47 2.5 2.078 0 1.923 2.305-.415 6.148l-1.944 3.197 4.344 3.824c2.42 2.13 5.163 5.816 6.194 8.323 1.03 2.503 2.517 4.503 3.35 4.506 1.223.005 1.44-1.29 1.169-6.996-.324-6.816-.403-7.004-3-7.073-1.468-.038-3.484-.392-4.481-.785-1.723-.68-1.711-.844.234-3.317 1.126-1.432 3.147-2.879 4.492-3.216l2.445-.614-2.55-4.56c-2.994-5.358-4.161-15.323-2.414-20.617.798-2.418 2.21-3.976 4.66-5.145 5.34-2.546 5.909-2.048 2.53 2.218-1.76 2.223-3.084 5.08-3.084 6.655 0 2.612.099 2.672 1.828 1.107 1.897-1.717 5.172-2.257 5.172-.852 0 .441-1.358 2.649-3.018 4.905l-3.017 4.103 1.768 4.761c2.646 7.128 3.97 6.681 4.432-1.496.286-5.064.97-7.786 2.46-9.794 2.51-3.386 9.013-7.244 12.247-7.266 2.088-.015 2.21.18 1.008 1.627-.75.904-3.167 2.483-5.372 3.51l-4.008 1.865 4.837-.583c4.198-.507 4.793-.359 4.5 1.12-.214 1.082-2.314 2.299-5.758 3.336-5.881 1.77-8.477 4.538-3.282 3.5 3.035-.608 7.203.922 7.203 2.644 0 .53-1.148.965-2.55.965-3.33 0-8.45 2.676-8.45 4.417 0 .751 1.22 1.672 2.712 2.046 1.491.375 4.754 2.08 7.25 3.79 2.496 1.711 6.682 4.302 9.302 5.758l4.765 2.648-2.87 3.962-2.87 3.962 2.663 3.19c3.664 4.39 14.586 6.718 27.825 5.934 7.38-.438 10.653-.157 15.997 1.371 9.194 2.63 13.393 2.493 17.011-.551l2.939-2.473-.498-9.777c-.274-5.378-.943-9.946-1.487-10.152-2.465-.935-4.74-4.393-4.74-7.205 0-2.934.15-3.047 3.15-2.387 2.794.613 3.069.48 2.426-1.171-2.638-6.776-3.734-13.89-2.68-17.408 1.557-5.195 4.78-8.954 7.677-8.954 1.335 0 2.428.18 2.428.4 0 .219-1.575 2.739-3.5 5.6-1.925 2.86-3.5 5.527-3.5 5.927 0 1.304 6.434-.149 9.166-2.07 3.847-2.705 8.165-3.368 9.722-1.492 1.09 1.314.747 1.76-2.35 3.054-1.995.834-4.906 2.794-6.468 4.357l-2.841 2.84 7.038-.058c4.779-.04 7.177.343 7.469 1.192.298.866-.823 1.25-3.653 1.25-4.677 0-5.169 1.058-1.583 3.408 3.464 2.27 3.123 3.592-.928 3.592-2.504 0-3.98-.704-5.483-2.614-3.019-3.838-5.29-2.547-4.897 2.784.305 4.154.35 4.198 5.376 5.325 6.724 1.507 9.102 3.328 13.608 10.414l3.778 5.942-2.902.637-2.902.637 2.415 5.188c1.328 2.852 2.42 5.958 2.425 6.901.011 1.981 2.9 3.786 6.06 3.786 1.787 0 2.067-.409 1.542-2.25-1.656-5.816-1.778-8.035-.568-10.296 1.17-2.187 1.036-2.669-1.363-4.892-3.174-2.942-3.377-4.562-.661-5.273 1.1-.287 2-.645 2-.794 0-.149-1.41-3.283-3.132-6.964-3.526-7.534-4.655-14.194-2.947-17.385 1.792-3.348 3.079-2.536 3.079 1.942v4.09l3.076-2.59c5.723-4.815 7.57-2.737 3.924 4.412-3.16 6.192-2.821 6.899 2.64 5.512 4.502-1.143 4.71-1.366 6.894-7.4 2.527-6.977 4.89-10.112 7.62-10.112 2.431 0 2.332.633-.654 4.182-1.375 1.634-2.5 3.435-2.5 4.003 0 .966.707.883 6.75-.794 3.979-1.105 2.7 2.525-1.5 4.255-3.857 1.59-8.25 5.065-8.25 6.528 0 .454 1.935.826 4.3.826 3.99 0 6.7 1.293 6.7 3.2 0 .44-.915.8-2.032.8-1.118 0-3.593.652-5.5 1.449-2.673 1.116-3.468 2.034-3.468 4 0 1.632.555 2.55 1.543 2.55.848 0 4.294 2.718 7.656 6.038 3.362 3.321 6.809 6.427 7.66 6.903 2.267 1.27-.104 3.753-4.978 5.213-3.804 1.14-4.76 2.185-2.997 3.275.486.3 1.821 2.54 2.967 4.978 1.874 3.988 2.629 4.591 7.52 6.013 6.906 2.008 7.51 1.989 12.77-.397 4.897-2.223 12.786-2.614 17.96-.89 1.869.623 5.107 3.082 7.195 5.464 4.117 4.696 8.142 6.125 13.77 4.89l3.222-.709-.58-10.981c-.414-7.856-.993-11.31-2.032-12.139-.8-.637-1.75-2.845-2.11-4.907-.713-4.073.545-4.832 4.5-2.715 1.822.975 1.936.642 1.977-5.75.062-9.652 1.374-15.395 4.003-17.524 1.23-.996 2.413-1.636 2.627-1.421.215.215-.163 2.462-.84 4.993-1.477 5.523-.649 6.781 2.51 3.813 4.703-4.417 16.657-5.28 16.657-1.201 0 1.428-1.167 1.892-6.046 2.402-6.814.712-9.44 1.823-10.942 4.63-.974 1.82-.745 1.897 3.977 1.337 4.013-.475 5.01-.3 5.01.879 0 .96-1.65 1.79-4.75 2.389-4.706.91-4.752.956-5.057 5.168-.368 5.09 1.891 5.898 4.2 1.5 2.198-4.19 8.589-9.907 13.608-12.174 7.622-3.443 11.453-2.165 4.25 1.418l-3.75 1.866 4.25.962c6.288 1.423 5.48 3.514-1.5 3.878l-5.75.3 4.273 4.273c4.18 4.18 4.224 4.292 2 5.132-2.91 1.098-5.497-.255-7.62-3.986-1.926-3.385-4.128-3.71-6.605-.973-1.686 1.863-1.672 2.072.336 4.89 1.153 1.62 4.575 5.21 7.604 7.979l5.507 5.033-4.175 3.573-4.174 3.573 2.19 2.332c1.206 1.283 2.766 4.322 3.468 6.753 1.59 5.51 4.88 6.64 6.477 2.225a162.314 162.314 0 011.723-4.554c.486-1.2.242-1.75-.775-1.75-1.936 0-3.397-1.828-4.283-5.356l-.713-2.845 5.634.35c6.374.396 6.106.9 4.7-8.82-1.495-10.332.938-16.33 6.624-16.33 2.99 0 2.911.78-.565 5.554-1.58 2.17-3.174 4.921-3.54 6.112-.911 2.957 1.227 4.046 2.993 1.525 2.078-2.966 7.425-5.967 11.322-6.353 3.882-.385 5.4 1.62 1.892 2.5-2.847.715-6.487 3.302-5.722 4.067.312.313 4.064-.1 8.336-.918 9.249-1.77 14.224-1.893 15.162-.375.934 1.512-1.234 2.704-6.32 3.473-2.337.353-4.25 1.042-4.25 1.53 0 .487.416.886.924.886 1.59 0 7.077 5.108 7.077 6.588 0 2.081-3.415 1.715-5.5-.588-1.283-1.418-3.08-2-6.171-2h-4.36l3.265 2.97c3.765 3.425 2.468 3.894-4.234 1.53-5.4-1.905-6.639-1.885-7.408.118-.43 1.121 2.003 4.477 7.911 10.914l8.532 9.294-2.6 2.046c-1.43 1.125-3.504 2.332-4.61 2.683-1.536.487-1.839 1.144-1.288 2.79 1.97 5.895 1.653 11.56-.969 17.286-2.845 6.215-2.464 7.324 2.527 7.353 1.427.008 3.43.939 4.451 2.067 1.823 2.014 1.803 2.096-1.095 4.446-1.623 1.317-5.962 4.331-9.643 6.698-5.348 3.44-7.014 5.14-8.299 8.466-1.876 4.857-1.84 4.839-12.485 6.395-8.07 1.18-15.664.804-18.76-.929-1.382-.773-1.247-1.236 1.026-3.509 2.942-2.942 6.462-3.429 7.385-1.021.505 1.315 1.604 1.48 6.219.94 10.66-1.248 11.952-2.655 4.155-4.526-6.69-1.605-7.894-3.202-4.452-5.91 3.169-2.492 4.265-2.623 5.041-.601.317.825 1.42 1.5 2.452 1.5 1.788 0 1.8-.163.248-3.418l-1.63-3.418-9.604-.674c-5.282-.37-12.365-1.22-15.738-1.888-5.945-1.177-6.285-1.128-11 1.574-5.322 3.05-14.28 5.454-16.767 4.5-1.336-.513-1.22-.983.78-3.14 1.808-1.952 3.36-2.547 6.735-2.582 2.412-.024 5.736-.663 7.386-1.418l3-1.374-3-.038c-1.65-.02-4.913.333-7.25.785-4.678.905-4.99.593-2.694-2.687 1.097-1.565 2.576-2.222 5-2.222 3.685 0 4.348-1.005 1.968-2.98-1.174-.975-2.448-.894-6.233.396-7.153 2.437-14.397 2.979-21.62 1.616l-6.488-1.224-5.341 4.247c-6.538 5.198-13.97 8.726-20.173 9.576l-4.67.64v-3.09c0-2.802.35-3.145 3.75-3.667 7.86-1.208 14.019-3.624 18.06-7.083 2.305-1.973 4.19-4.002 4.19-4.51 0-1.621-4.097-.988-7.006 1.083-8.88 6.324-21.993 9.329-21.993 5.04 0-1.483.903-2.1 3.75-2.563 5.288-.86 11.318-3.176 14.25-5.476l2.5-1.961-2.787-.022c-1.532-.012-6.64.944-11.35 2.125-6.427 1.613-8.746 1.852-9.296.962-.536-.869-1.466-.908-3.465-.148-3.991 1.517-4.302 1.351-3.805-2.033.304-2.075 1.222-3.366 2.827-3.976 3.298-1.254 2.973-2.952-.565-2.952-3.644 0-4.365-1.067-3.053-4.518.761-2.002 1.464-2.507 2.758-1.986.954.386 3.31.887 5.236 1.115 2.97.352 3.859-.05 5.871-2.653l2.372-3.069-12.872.675c-12.726.667-12.91.711-16.371 3.906-3.898 3.598-8.038 6.53-9.223 6.53-.427 0-.777-1.342-.777-2.981 0-2.333.535-3.116 2.459-3.599 1.352-.339 3.04-1.32 3.75-2.18 2.35-2.847-6.623-.771-15.89 3.676-4.682 2.246-8.948 4.084-9.482 4.084-.534 0-.828-1.238-.654-2.75.275-2.385.853-2.822 4.348-3.289 3.922-.523 9.374-3.595 9.437-5.316.018-.47-1.88-.571-4.218-.224s-9.425.892-15.75 1.21c-6.325.317-12.134 1.093-12.909 1.723-2.024 1.647-5.044 8.686-5.07 11.819-.032 3.958-4.653 9.008-7.897 8.63-3.572-.416-3.998-3.448-.696-4.953 1.415-.644 2.572-1.774 2.572-2.511 0-1.819-.439-1.72-4.937 1.12-2.143 1.354-5.11 2.765-6.59 3.137-2.316.58-2.615.41-2.131-1.21.31-1.038.866-3.158 1.238-4.713.566-2.369 1.059-2.73 3.047-2.23 1.305.327 2.373.233 2.373-.209s1.35-1.6 3-2.575c2.918-1.724 3.634-3.843 2.393-7.078-1.029-2.68-2.926-1.82-10.856 4.919-4.873 4.141-8.535 6.5-10.093 6.5-2.752 0-2.882-.447-1.381-4.752.814-2.336 1.84-3.195 4.386-3.673 3.305-.62 12.55-7.816 12.55-9.767 0-1.37-2.128-.492-10.83 4.464-5.48 3.123-7.678 5.008-8.708 7.474-.758 1.815-2.808 4.076-4.556 5.026-1.748.95-4.536 3.018-6.197 4.596-2.978 2.83-10.023 6.567-12.458 6.61-.787.013-1.25-1.402-1.25-3.82v-3.84l5.691-1.274c3.741-.837 6.654-2.236 8.5-4.082 3.758-3.758 3.663-5.383-.269-4.597-3.026.605-3.066.562-2.382-2.625.952-4.438 1.215-4.74 4.127-4.74 2.208 0 2.467-.33 1.933-2.456-2.076-8.27-2.072-8.27-13.91-6.191-6.634 1.165-6.857 1.302-8.665 5.34-1.02 2.28-2.906 4.681-4.19 5.336-1.285.655-3.685 2.737-5.335 4.626-2.92 3.342-10.357 6.868-11.638 5.517-.35-.37-.943-1.685-1.317-2.922-.534-1.766-.283-2.25 1.165-2.25 2.505 0 6.29-2.77 5.846-4.278-.199-.672-.912-3.355-1.585-5.96-1.08-4.177-1.639-4.853-4.72-5.703-4.42-1.221-8.564.164-17.055 5.7-3.467 2.26-6.726 4.252-7.242 4.425-.517.174.004 3.073 1.154 6.443l2.094 6.128-2.045 4.622c-1.447 3.271-2.629 4.623-4.042 4.623-3.054 0-3.284-1.39-.939-5.671 2.277-4.157 2.08-7.175-.703-10.797-1.485-1.933-1.572-1.934-4.985-.096-1.91 1.028-6.208 5.176-9.55 9.217-7.019 8.485-8.938 9.204-8.938 3.347 0-3.71.202-4 2.788-4 2.768 0 6.974-4.06 11.646-11.24 1.622-2.493 1.636-2.796.162-3.362-1.896-.728-10.695 6.413-15.72 12.758l-3.265 4.123-1.523-3.215c-1.201-2.537-2.009-3.122-3.83-2.773-1.76.336-2.198.057-1.843-1.175.256-.89.979-3.6 1.606-6.024 1.31-5.065 5.807-10.092 9.027-10.092 1.959 0 2.126-.359 1.512-3.25-.379-1.788-.944-4.713-1.256-6.5-.43-2.473-1.073-3.247-2.685-3.237-4.75.03-6.167 1.224-9.42 7.93-2.858 5.89-3.216 7.459-2.663 11.68.554 4.223.226 5.66-2.448 10.728-1.699 3.218-3.088 6.061-3.088 6.317 0 1.15 4.683-1.055 6.35-2.99l1.85-2.148 1.685 2.08c.926 1.143 2.334 2.296 3.129 2.561 1.022.34.572 1.03-1.535 2.354-1.639 1.03-4.39 3.359-6.114 5.174-3.062 3.224-5.365 4.24-5.365 2.366 0-.515-.438-2.088-.974-3.496l-.973-2.56-6.575 3.613c-3.616 1.988-6.764 3.425-6.996 3.193-.231-.231-.15-2.084.18-4.118.55-3.392.871-3.697 3.886-3.697 2.911 0 3.752-.698 7.369-6.114 6.181-9.257 5.665-10.12-1.988-3.324-2.825 2.51-5.287 4.414-5.47 4.231-.717-.718.86-8.793 1.718-8.793.502 0 2.071-1.158 3.486-2.573l2.572-2.572-2.805-2.928c-3.224-3.366-4.997-3.62-8.44-1.209-1.35.946-5.387 2.69-8.972 3.875-4.42 1.461-6.39 2.598-6.123 3.53 2.626 9.133 2.624 8.694.054 11.445-2.424 2.594-7 5.432-8.761 5.432-1.776 0 0-4.608 2.14-5.547 2.572-1.13 3.339-5.338 1.573-8.638-1.188-2.22-1.276-2.159-3.125 2.2-2.32 5.468-5.12 8.586-9.919 11.047l-3.642 1.868-.594-2.215c-.953-3.555-.725-4.715.928-4.715 3.67 0 7.385-3.044 8.424-6.9.575-2.137.769-4.61.43-5.493-.966-2.516-4.967-1.89-8.129 1.272-1.937 1.937-5.66 3.727-11.375 5.47l-8.496 2.592-6.873 10.16c-4.9 7.243-8.172 10.984-11.398 13.03-5.33 3.38-6.704 3.538-8.097.934-1.6-2.989-1.356-3.399 3.579-6.017 3.265-1.732 6.042-4.482 9.5-9.405 2.687-3.826 4.886-7.348 4.886-7.826 0-2.043-6.274 2.639-11.184 8.346-9.13 10.615-10.354 11.509-16.645 12.162-4.329.45-6.026.23-7.171-.925-1.335-1.346-1.28-1.637.5-2.631 4.2-2.346 8.25-7.471 9.943-12.584.968-2.923 1.51-5.565 1.206-5.87-.718-.717-9.274 5.59-13.15 9.692-2.9 3.07-9.328 6.993-11.46 6.993-.571 0-1.04-1.54-1.04-3.421 0-2.947.395-3.507 2.85-4.046 3.402-.748 7.891-5.292 11.581-11.725 2.468-4.302 3.153-4.795 8.24-5.934l5.547-1.241-.444-5.352c-.244-2.944-.862-5.77-1.373-6.28-.56-.56-3.706-.59-7.915-.074-3.842.471-13.96 1.64-22.485 2.6-8.525.958-15.623 1.841-15.772 1.963-.15.121.406 3.098 1.235 6.615 4.077 17.298-1.039 33.307-12.642 39.558-4.89 2.634-9.059 7.433-7.667 8.824 1.006 1.006 13.003-4.312 18.787-8.327 2.993-2.077 6.978-6 8.856-8.719 3.266-4.726 3.389-5.225 2.807-11.441l-.608-6.5 2.618 2.94c2.298 2.582 2.549 3.536 2.045 7.787-1.915 16.167-15.392 25.585-48.16 33.655-7.683 1.892-64.807 13.352-82.577 16.566-10.954 1.981-17.922 2.047-17.922.168zm81.356-17.35c17.163-3.91 21.295-5.19 23.335-7.23 1.363-1.364 2.062-2.619 1.552-2.789-.51-.17-10.606 1.73-22.435 4.222-11.828 2.492-21.755 4.53-22.06 4.53-.304 0-1.023 1.35-1.599 3-.575 1.65-.731 3.005-.347 3.01.384.005 10.083-2.129 21.554-4.742zm539.74-25.022c2.026-5.327 2.997-11.928 2.397-16.29-.822-5.977-1.732-7.33-4.369-6.494-1.835.582-2.127 1.45-2.142 6.357-.01 3.125-.684 8.832-1.5 12.682-.815 3.85-1.482 7.035-1.482 7.077 0 .042 1.382-.126 3.072-.374 2.129-.312 3.364-1.22 4.025-2.958zm-515.995 1.234c3.977-.836 8.731-2.448 10.565-3.581 4.885-3.02 10.144-9.928 12.363-16.24 2.49-7.086 3.704-19.086 2.035-20.118-1.866-1.153-2.208-.236-3.192 8.558-1.088 9.724-3.276 15.13-8.435 20.84-5.53 6.122-8.67 7.465-17.437 7.459-6.237-.004-8.407-.474-12.881-2.784-6.781-3.502-13.273-9.966-19.962-19.879-5.183-7.68-5.258-7.742-8.942-7.22-3.781.534-51.096 5.481-52.465 5.485-.976.003-.976 2.76 0 3.296.412.228 12.613-.782 27.113-2.244l26.364-2.657 4.1 5.553c9.045 12.253 15.883 17.896 27.454 22.654 3.145 1.294 5.802 2.363 5.903 2.376.102.013 3.44-.661 7.417-1.498zm-20.101-12.537c0-1.133-.43-1.794-.957-1.468-.526.325-.703 1.251-.393 2.059.794 2.067 1.35 1.823 1.35-.591zm445.408-6.95c.546-.545 2.005-.991 3.245-.991 2.63 0 7.347-1.979 7.347-3.082 0-.418-1.343-1.054-2.983-1.415-2.082-.457-4.927.123-9.42 1.92-3.541 1.418-6.924 2.577-7.518 2.577-.594 0-1.08.841-1.08 1.87 0 1.688.462 1.785 4.71.992 2.59-.484 5.154-1.326 5.7-1.871zm-341.769-3.262c.83-1.603 1.314-3.11 1.077-3.346-1-1-3.58.939-4.122 3.096-.322 1.284-.897 3.164-1.277 4.178-.619 1.648-.507 1.692 1.061.415.965-.785 2.432-2.739 3.261-4.343zm-74.873-5.054c-.783-9.751-1.588-10.675-9.302-10.675-3.555 0-6.464.182-6.464.405 0 .222 1.977 1.563 4.394 2.98 6.061 3.552 9.905 8.285 9.155 11.273-.439 1.75-.169 2.342 1.068 2.342 1.42 0 1.584-.9 1.149-6.325zm506.18 1.193c2.37-.826 2.883-1.362 1.9-1.985-2.456-1.556-7.47-.958-9.346 1.117-1.772 1.957-1.747 2 1.195 2 1.654 0 4.467-.51 6.252-1.132zm-318.985-4.715c-.656-.218-1.584.22-2.062.975-1.58 2.495-.933 3.212 1.177 1.302 1.342-1.214 1.655-2.02.885-2.277zm323.972-.784c1.161-1.079-2.062-2.478-5.048-2.192-2.332.223-3.477.893-3.72 2.176-.315 1.66.104 1.778 3.991 1.136 2.39-.395 4.539-.899 4.777-1.12zm-86.765-1.252c.368-.34.818-2.192 1-4.117.503-5.308-2.504-4.652-5.462 1.191l-2.376 4.692 3.085-.574c1.697-.316 3.385-.852 3.753-1.192zm-455.55.117c.891-.586 4.382-10.559 4.382-12.522 0-1.263-5.498-1.311-7.987-.07-2.272 1.134-2.884 2.199-3.206 5.584-.55 5.77 3.053 9.479 6.81 7.008zm356.366-2.484c.008-.413-.434-.75-.984-.75s-.993 1.012-.985 2.25c.012 1.819.2 1.963.985.75.533-.825.976-1.838.984-2.25zm67.523 1.868c1.643-1.201 1.896-2.78 1.941-12.08l.052-10.699-3-2.445a14281.3 14281.3 0 00-4.274-3.48c-1.569-1.277-7.445-.804-7.916.637-.21.638.938.903 2.923.675 2.999-.346 3.381-.063 4.664 3.449 1.651 4.52 1.902 10.482.803 19.075-.73 5.711-.64 6.25 1.059 6.25 1.022 0 2.709-.622 3.748-1.382zm-136.267-4.095c.511-2.675-.01-3.784-1.38-2.937-1.134.7-1.114 5.414.023 5.414.486 0 1.096-1.115 1.357-2.477zm252.76.86c0-.21-.9-.383-2-.383s-2 .407-2 .906c0 .498.9.671 2 .383 1.1-.287 2-.695 2-.906zm-360.803-7.383c-.52-11.133-3.872-18-8.788-18-3.38 0-3.384 1.977-.014 6.759 2.532 3.591 3.11 5.497 3.44 11.334.39 6.906.438 7.012 3.03 6.712 2.58-.3 2.628-.439 2.332-6.805zm158.667 1.733c2.158-1.057 2.311-1.598 1.758-6.196-.333-2.77-.609-6.275-.614-7.787-.008-2.438-.378-2.749-3.258-2.735-1.788.008-2.744.346-2.126.75.618.404 1.426 2.126 1.795 3.826.526 2.427-.093 4.555-2.875 9.892-1.95 3.74-3.544 7.006-3.544 7.257 0 .25 1.462-.513 3.25-1.696 1.787-1.184 4.313-2.674 5.614-3.31zm172.122 3.017c-.03-4.972-1.111-6.75-4.103-6.75-2.298 0-2.883.443-2.883 2.185 0 2.448 3.636 6.815 5.674 6.815.73 0 1.32-1.013 1.312-2.25zm-593.593-4.332c1.058-2.76.697-3.738-.893-2.418-1.637 1.358-2.038 4-.607 4 .49 0 1.166-.712 1.5-1.582zm142.876.926c-.677-.274-2.027-.291-3-.037-.973.253-.42.477 1.23.498 1.65.02 2.447-.188 1.77-.461zm140.092-.844c.317-.825.14-1.5-.393-1.5-.532 0-.968.675-.968 1.5s.176 1.5.393 1.5c.216 0 .652-.675.968-1.5zm257.215.623c-.522-.845-8.258-3.123-10.603-3.123-2.03 0-.399 2.424 2.1 3.122 3.603 1.007 9.125 1.007 8.503 0zm-433.847-.728c-.333-.332-1.195-.367-1.917-.079-.798.32-.56.557.604.605 1.054.043 1.645-.193 1.313-.526zm16 0c-.333-.332-1.195-.367-1.917-.079-.798.32-.56.557.604.605 1.054.043 1.645-.193 1.313-.526zm262.152-.06c2.325-.622 2.37-.837 1.857-9.046-.434-6.963-1.016-9.199-3.381-13.001-3.47-5.576-5.781-7.265-7.54-5.506-.983.983-.577 2.575 1.973 7.746 2.685 5.445 3.21 7.651 3.21 13.49 0 3.84.337 6.975.75 6.968.412-.008 1.821-.3 3.131-.651zm-272.152-.94c-.333-.332-1.195-.367-1.917-.079-.798.32-.56.557.604.605 1.054.043 1.645-.193 1.313-.526zm41.02-1.545c10.944-1.08 12.25-1.412 12.25-3.11 0-1.543-.516-1.793-2.75-1.333-2.909.6-28.717 4.593-29.683 4.593-.311 0-.566.5-.566 1.113 0 .735 1.445.915 4.25.53 2.337-.321 9.762-1.128 16.5-1.793zm-33.5.487c-.687-.277-1.812-.277-2.5 0-.687.278-.124.505 1.25.505 1.376 0 1.938-.227 1.25-.505zm288.75-.337c0-.55-.476-1-1.058-1-.583 0-.781.45-.441 1s.816 1 1.059 1c.242 0 .44-.45.44-1zm136-.864c0-1.467-1.263-2.131-5.95-3.126-6.28-1.333-9.05-.946-9.05 1.266 0 1.416 6.266 3.322 11.75 3.574 2.558.118 3.25-.248 3.25-1.714zm-419.75.201c-.687-.277-1.812-.277-2.5 0-.687.278-.124.505 1.25.505 1.376 0 1.938-.227 1.25-.505zm9.48-.942c-.333-.332-1.195-.367-1.917-.079-.798.32-.56.557.604.605 1.054.043 1.645-.193 1.313-.526zm4.52-1.058c-.687-.277-1.812-.277-2.5 0-.687.278-.124.505 1.25.505 1.376 0 1.938-.227 1.25-.505zm32.75-2.36c0-1.298-.55-1.646-2-1.267-1.1.287-2 1.328-2 2.313 0 1.297.55 1.645 2 1.266 1.1-.287 2-1.328 2-2.312zm-28.27 1.418c-.333-.332-1.195-.367-1.917-.079-.798.32-.56.557.604.605 1.054.043 1.645-.193 1.313-.526zm4-1c-.333-.332-1.195-.367-1.917-.079-.798.32-.56.557.604.605 1.054.043 1.645-.193 1.313-.526zm401 0c-.332-.332-1.195-.367-1.917-.079-.798.32-.56.557.604.605 1.054.043 1.645-.193 1.313-.526zm-396-1c-.333-.332-1.195-.367-1.917-.079-.798.32-.56.557.604.605 1.054.043 1.645-.193 1.313-.526zm-52.353-1.682c1.325-.968 1.681-2.388 1.442-5.75-.312-4.37-.397-4.47-4.068-4.774l-3.75-.31v4.126c0 6.997 2.453 9.577 6.376 6.708zm56.874.624c-.688-.277-1.813-.277-2.5 0-.688.278-.125.505 1.25.505s1.937-.227 1.25-.505zm385.75-.362c0-1.097-3.764-2.772-8.25-3.673-3.461-.695-3.83 1.871-.5 3.477 2.895 1.397 8.75 1.528 8.75.196zm-378.476-1.016c.422-.682-.332-.805-2.19-.359-3.832.92-4.195 1.4-1.06 1.4 1.434 0 2.897-.468 3.25-1.04zm129.45-.025c6.558-1.064 7.786-1.507 6.829-2.465-.769-.768-15.128 1.55-16.253 2.624-1.252 1.194 1.354 1.15 9.424-.159zm-121.003-.895c.809-.512 1.259-1.14 1-1.397-.774-.765-5.971.518-5.971 1.474 0 1.156 3.097 1.108 4.97-.077zm470.787-8.324c-2.568-.95-4.34.613-5.348 4.721l-.721 2.937 4.094-3.437c3.847-3.229 3.966-3.484 1.975-4.22zm-343.787 4.3c1.09-.584 2.448-1.931 3.017-2.994 1.002-1.872.886-1.888-3.727-.488-6.06 1.84-6.17 1.831-5.587-.396.532-2.033-1.875-3.1-7.05-3.124-2.688-.013-2.834.19-2.25 3.112.344 1.718.626 3.808.626 4.644 0 1.266 1.085 1.418 6.494.913 3.572-.333 7.387-1.084 8.477-1.667zm112.279.322c-.688-.277-1.813-.277-2.5 0-.688.278-.125.505 1.25.505s1.937-.227 1.25-.505zm-180.25-1.387c0-4.015-6.199-9.95-10.392-9.95-2.995 0-2.499 1.882 1.65 6.254 3.92 4.132 8.742 6.17 8.742 3.696zm191.5-.95c1.835-.789 1.794-.866-.5-.939-1.375-.043-4.863-.363-7.75-.71-4.455-.535-5.25-.382-5.25 1.01 0 1.336 1.06 1.626 5.75 1.568 3.162-.038 6.65-.457 7.75-.93zm4.5-4.5c1.067-1.287.727-1.5-2.397-1.5-3.385 0-3.597-.177-3.014-2.5.618-2.463.535-2.5-5.481-2.5h-6.108v3.333c0 1.833.3 3.633.666 4 .367.367 3.912.667 7.878.667 5.19 0 7.56-.42 8.456-1.5zm44.593-.884c.62-1.617-2.094-8.616-3.342-8.616-1.388 0-3.251 2.28-3.251 3.977 0 4.099 5.355 7.867 6.593 4.64zm26.657.721c-.688-.277-1.813-.277-2.5 0-.688.278-.125.505 1.25.505s1.937-.227 1.25-.505zm-439.5-7.09c4.738-3.973 6.94-8.247 4.25-8.247-.55 0-1-.685-1-1.52 0-1.261-.727-1.152-4.25.637-7.5 3.808-13.75 10.143-13.75 13.938 0 3.082 8.736.234 14.75-4.808zm233.75 4.753c-4.476-1.14-10.5-1.14-10.5 0 0 .58 2.837.95 6.75.881 5.215-.091 6.068-.292 3.75-.881zm132.5-5.993c-1.747-1.12-15.921-4.42-16.5-3.84-1.115 1.114 1.657 2.977 5.572 3.745 6.397 1.255 12.824 1.31 10.928.095zm-78-.861c0-1.193-4.703-6.146-5.836-6.146-1.383 0-2.032 4.732-.816 5.948 1.256 1.256 6.652 1.417 6.652.198zM56.576 70.045c1.345-1.432 1.955-2.99 1.567-4-.753-1.963-1.488-2.038-4.874-.495-2.723 1.24-3.306 3.681-1.347 5.64 1.655 1.655 2.133 1.538 4.654-1.145zm348.646.345c.34-.55-.309-1-1.441-1-1.133 0-2.06.45-2.06 1s.65 1 1.442 1c.792 0 1.719-.45 2.059-1zm-.771-3.605c-.333-.332-1.195-.367-1.917-.079-.798.32-.56.557.604.605 1.054.043 1.645-.193 1.313-.526zm137.46-9.917c.409-.41-1.034-7.979-1.767-9.266-.544-.955-5.422 2.397-5.422 3.726 0 3.759 5.065 7.663 7.188 5.54zM364.343 34.93c.504-1.313-1.289-8.541-2.118-8.541-3.571 0-4.706 5.014-1.85 8.17 1.999 2.209 3.22 2.323 3.968.37zm135.181-7.396c-1.493-.57-2.108.626-1.32 2.561.682 1.673.782 1.659 1.49-.206.417-1.1.34-2.16-.17-2.355zm-178.803 98.796c0-.583.45-.781 1-.441s1 .816 1 1.059c0 .242-.45.44-1 .44s-1-.476-1-1.058z" fill="#c70d0d"/></svg>